<svg width="3440" height="1431" viewBox="0 0 3440 1431" fill="none" xmlns="http://www.w3.org/2000/svg">
<path d="M3440 79.6874C3118.59 32.4403 2829.96 13.3231 2438.5 26.1874C2125.92 36.4594 1828.96 95.4669 1520.52 129.461C1317.77 151.81 1188.86 166.02 978.5 141.089C879.698 129.379 804.435 99.4548 730.757 70.1604C645.417 36.2293 562.203 3.14357 447 0.187266C270.054 -4.35344 0 75.1874 0 75.1874V1328.1C112.5 1359.92 211.818 1371.42 316.172 1315.14C411.626 1263.67 491.131 1263.51 579.5 1328.42C678.693 1401.28 770.051 1392.22 884.066 1361.05C1030.85 1320.92 1152.7 1322.83 1294.5 1380.75C1435.33 1438.27 1569.26 1447 1715.63 1403.71C1944.63 1335.98 2137.46 1129 2440 1129C2764.5 1129 2894.12 1418.8 3231 1328.1C3309.81 1306.88 3440 1328.1 3440 1328.1L3440 79.6874Z" fill="#05B9CA"/>
</svg>
